<svg width="100" height="100" viewBox="0 0 100 100" fill="none" xmlns="http://www.w3.org/2000/svg">
<g clip-path="url(#clip0_1_65)">
<circle cx="50" cy="50" r="50" fill="white"/>
<path d="M99.9989 50.4429C99.9136 61.4439 96.0807 73.2755 88.7141 81.7337C88.7141 81.7337 70.3036 60.2119 68.3255 57.8584C65.3618 54.3262 61.2502 52.4431 55.9908 52.209C54.2709 52.131 48.0023 52.092 37.1851 52.092C37.0748 52.092 36.969 52.1357 36.8911 52.2135C36.8131 52.2913 36.7693 52.3969 36.7693 52.5069V52.9112C36.7693 53.0602 36.8439 53.1382 36.9932 53.1453C45.3868 53.2446 51.2361 53.2978 54.5409 53.3049C57.661 53.3119 60.0171 53.6453 61.6091 54.3049C64.3383 55.4327 66.3887 56.8335 67.7604 58.5074C72.835 64.7066 79.7581 73.2102 87.6685 82.9628C86.5589 84.2047 85.8984 84.9108 84.6088 86.166C74.1967 73.3847 67.5685 65.3059 65.7988 63.1355C64.1571 61.1212 61.801 59.5714 58.7307 58.4862C56.9396 57.8478 54.214 57.5144 50.5538 57.4861C42.4871 57.4293 38.0166 57.401 37.1424 57.401C36.8652 57.401 36.7231 57.6137 36.716 58.0393L36.7053 58.3266C36.7053 58.3691 36.7622 58.394 36.8759 58.401C46.229 58.5287 52.3448 58.6209 55.2232 58.6777C57.4762 58.7273 59.9176 59.6778 62.5472 61.529C63.8194 62.4227 65.479 64.1321 67.5259 66.6571C75.0809 75.9629 80.857 83.0853 83.8847 86.8445C82.6462 88.0288 81.9138 88.638 80.5249 89.6824C77.6323 86.143 71.8862 79.1653 64.0824 69.5829C62.2985 67.3841 60.1379 65.6783 57.6006 64.4654C55.8309 63.6143 53.2759 63.1391 49.9355 63.0398C44.4273 62.8624 40.028 62.7844 36.7373 62.8057C36.6921 62.8057 36.6487 62.8225 36.6167 62.8524C36.5847 62.8824 36.5667 62.923 36.5667 62.9653V63.2525C36.5667 63.5575 36.7195 63.7171 37.0252 63.7313C40.7636 63.9015 45.6782 64.0611 51.7691 64.2101C56.069 64.3165 59.7434 66.0968 62.7924 69.551C64.1073 71.0476 70.071 78.3707 79.6729 90.2512C78.3225 91.2407 77.522 91.7822 76.0108 92.7191C71.057 86.2859 66.0511 79.9526 61.8436 74.711C58.9936 71.1575 55.2943 69.097 50.7457 68.5296C48.5424 68.253 43.8659 68.1111 36.716 68.104C36.6764 68.104 36.6384 68.1197 36.6104 68.1477C36.5825 68.1756 36.5667 68.2135 36.5667 68.253V68.6573C36.5667 68.941 36.7053 69.0829 36.9825 69.0829C38.1339 69.1112 41.9931 69.2353 48.5602 69.4552C51.3889 69.5545 53.5601 69.9553 55.074 70.6575C57.6042 71.8278 59.4591 73.1506 60.639 74.6259C62.2105 76.6018 75.0922 93.2642 75.0922 93.2642C60.7217 101.813 41.9398 102.224 26.9506 94.5C16.5741 89.152 7.49999 79.0783 3.63193 68.8701H20.6074C20.7993 68.8701 20.8953 68.7743 20.8953 68.5828V68.1679C20.8953 68.0804 20.8605 67.9965 20.7985 67.9347C20.7365 67.8728 20.6524 67.8381 20.5648 67.8381H3.24855C2.62584 66.1976 2.32454 65.272 1.85425 63.6143H20.6607C20.7013 63.6143 20.7416 63.6063 20.7791 63.5908C20.8166 63.5753 20.8506 63.5526 20.8794 63.5239C20.9081 63.4953 20.9308 63.4612 20.9464 63.4238C20.9619 63.3864 20.9699 63.3463 20.9699 63.3057V62.8908C20.9699 62.6709 20.8562 62.561 20.6288 62.561H1.57197C1.11038 60.798 0.930292 59.8633 0.670156 58.2521H20.6181C20.746 58.2521 20.8313 58.1954 20.874 58.0819L21.0872 57.5818C21.1867 57.3336 21.1049 57.2094 20.842 57.2094H0.499993C0.279381 55.5626 0.192949 54.6401 0.0855806 52.9963H20.7993C20.8729 52.9963 20.9434 52.9683 20.9953 52.9184C21.0473 52.8685 21.0765 52.8009 21.0765 52.7303V52.2516C21.0765 52.0033 20.9521 51.8792 20.7034 51.8792H0.0349828C-0.0586034 50.2189 -0.0190993 49.276 0.0599975 47.5893L20.7354 47.8576C20.9841 47.8647 21.1085 47.7441 21.1085 47.4958L21.1192 47.0171C21.1206 46.9813 21.1145 46.9456 21.1012 46.9121C21.088 46.8786 21.0678 46.848 21.0419 46.8222C21.016 46.7963 20.985 46.7758 20.9506 46.7617C20.9163 46.7477 20.8793 46.7405 20.842 46.7404L0.124655 46.5111C0.206069 44.8478 0.321744 43.9298 0.58882 42.2726L20.9486 42.5273C21.2116 42.5344 21.2933 42.4138 21.1938 42.1656L20.9912 41.6549C20.9486 41.5414 20.8633 41.4847 20.7354 41.4847L0.77909 41.2329C1.07707 39.5593 1.29214 38.6166 1.74923 36.9347L20.81 37.1758C21.0374 37.1829 21.1547 37.0765 21.1618 36.8566V36.4417C21.1632 36.4011 21.1566 36.3607 21.1424 36.3227C21.1282 36.2848 21.1066 36.25 21.0788 36.2203C21.0511 36.1907 21.0178 36.1668 20.9808 36.15C20.9438 36.1332 20.9039 36.1238 20.8633 36.1225L2.04239 35.8597C2.49748 34.1722 2.81128 33.2513 3.5 31.6646L20.8207 31.8987C20.8649 31.9001 20.9091 31.8927 20.9504 31.8767C20.9917 31.8608 21.0294 31.8367 21.0613 31.806C21.0931 31.7752 21.1184 31.7383 21.1357 31.6976C21.1529 31.6569 21.1618 31.6131 21.1618 31.5689V31.154C21.1689 30.9625 21.0765 30.8667 20.8846 30.8667L3.91127 30.6196C9 19.0783 17.1462 10.5316 27.601 5.33253C42.6967 -2.17877 61.2525 -1.78694 75.7525 7.21307C75.7525 7.21307 62.5844 23.7422 60.9908 25.6854C59.7896 27.1465 57.9169 28.4445 55.3725 29.5794C53.8444 30.2603 51.6661 30.6291 48.8374 30.6858C42.2703 30.8135 38.4111 30.8809 37.2597 30.888C36.9825 30.888 36.8404 31.0298 36.8333 31.3136V31.7178C36.8333 31.7573 36.849 31.7952 36.877 31.8232C36.905 31.8511 36.9429 31.8668 36.9825 31.8668C44.1324 31.959 48.8089 31.8845 51.0122 31.6434C55.5679 31.1398 59.2957 29.1325 62.1954 25.6216C66.4811 20.4438 71.4068 13.9934 76.4529 7.63109C77.9964 8.58917 78.8355 9.16603 80.2716 10.286C70.4991 22.0247 64.4058 29.3169 63.0696 30.7922C59.9709 34.2039 56.2715 35.931 51.9717 35.9735C45.8808 36.0374 40.9661 36.126 37.2277 36.2395C36.9221 36.2537 36.7657 36.4133 36.7586 36.7183V37.0055C36.7586 37.0461 36.7751 37.0853 36.8049 37.1149C36.8346 37.1446 36.8752 37.1625 36.9185 37.1651C40.2092 37.2361 44.6121 37.2219 50.1273 37.1226C53.4678 37.0729 56.0264 36.6332 57.8032 35.8033C60.3618 34.6259 62.5473 32.952 64.3596 30.7816C72.3055 21.3127 78.0296 14.3251 80.972 10.8283C82.3832 11.9163 83.12 12.5575 84.3613 13.7431C81.2768 17.4598 75.4505 24.5612 67.7604 33.7606C65.678 36.2501 63.9936 37.9347 62.7072 38.8142C60.0562 40.6229 57.6042 41.5378 55.3512 41.5591C52.4727 41.5733 46.3534 41.5769 36.9932 41.5698C36.8795 41.5769 36.8226 41.6017 36.8226 41.6442L36.8333 41.9315C36.8333 42.3571 36.9718 42.5699 37.249 42.5699C38.1232 42.584 42.5937 42.6231 50.6604 42.6869C54.3206 42.7082 57.0498 42.4138 58.8479 41.8038C61.9325 40.7612 64.3134 39.2433 65.9907 37.2502C67.7889 35.1082 74.479 27.0696 85.0759 14.4373C86.3696 15.7032 87.0503 16.4308 88.1645 17.7691C80.112 27.4012 73.0447 35.782 67.8777 41.9102C66.4847 43.5629 64.4164 44.9353 61.6731 46.0276C60.0668 46.6589 57.7037 46.9568 54.5836 46.9213C51.2787 46.8787 45.4295 46.8468 37.0358 46.8256C36.8866 46.8326 36.8119 46.9107 36.8119 47.0596L36.8013 47.4639C36.8013 47.574 36.8451 47.6795 36.923 47.7573C37.001 47.8351 37.1068 47.8788 37.217 47.8788C48.0343 48.0349 54.3029 48.0881 56.0228 48.0384C61.2822 47.8824 65.4186 46.0595 68.4321 42.5699C74.3382 35.7466 81.4044 27.3901 88.7319 18.4744C97.0237 28.9392 99.7595 35.7992 99.9989 50.4429Z" fill="#7998AC"/>
</g>
<defs>
<clipPath id="clip0_1_65">
<rect width="100" height="100" fill="white"/>
</clipPath>
</defs>
</svg>
